<svg width="67" height="83" viewBox="0 0 67 83" fill="none" xmlns="http://www.w3.org/2000/svg">
<path d="M51.0489 15.7506C50.6259 15.5051 50.1112 15.4208 49.6296 15.6768C48.9722 16.0453 48.7311 16.8701 49.0959 17.6175C56.5654 31.0646 55.4092 44.8618 46.05 53.681C36.2022 62.9673 20.7606 63.6475 6.62606 55.4408L6.11809 55.1458C5.35612 54.7034 4.52981 54.9739 4.16546 55.6195C3.80111 56.2651 4.0747 57.1742 4.75164 57.5672L5.25961 57.8622C20.4946 66.7079 37.2312 65.9224 48.01 55.7825C58.3457 46.0292 59.7554 30.9865 51.5896 16.3842C51.5113 16.1254 51.3027 15.8974 51.0488 15.7499L51.0489 15.7506Z" fill="black"/>
<path d="M13.8591 51.2787C13.4381 51.0338 12.8803 51.0302 12.4009 51.2854C10.6125 52.2755 8.80374 52.5065 6.82765 52.6395C5.62221 52.7932 4.4621 52.8666 3.25041 53.2308C2.86145 53.3253 2.46658 53.6297 2.32378 54.0814C2.18125 54.5325 2.25246 55.002 2.49889 55.3587C3.4452 56.6571 4.35269 57.8262 5.26048 58.9948C6.16794 60.1639 7.07573 61.3325 7.85386 62.5331C8.26233 63.198 9.157 63.3976 9.85668 62.9497C10.5111 62.5822 10.6665 61.7105 10.1739 60.9967C9.22763 59.6984 8.32015 58.5292 7.41236 57.3606C6.95862 56.7761 6.50489 56.1915 6.05121 55.607C6.3949 55.5928 6.78357 55.4988 7.21138 55.5336C9.31765 55.369 11.6833 55.1419 13.8672 53.8471C14.5217 53.4796 14.7617 52.6571 14.2686 51.943C14.2801 51.5237 14.0278 51.377 13.859 51.2788L13.8591 51.2787Z" fill="black"/>
</svg>
