<svg width="30" height="48" viewBox="0 0 30 48" fill="none" xmlns="http://www.w3.org/2000/svg">
<path d="M28.9913 24.3571C28.9419 23.8609 28.545 23.5139 28.0487 23.4145C27.7511 23.365 20.6571 22.4719 16.639 26.4406C16.2916 26.788 15.994 27.1845 15.6964 27.5814L15.6967 21.9761C21.2527 21.4304 25.6182 16.7178 25.6182 11.0128C25.6182 4.91122 20.6575 0 14.6054 0C8.55326 0 3.59252 4.96074 3.59252 11.0128C3.59252 16.7175 7.95806 21.4304 13.514 21.9761V27.7306C13.2164 27.2842 12.869 26.8379 12.4721 26.4904C8.50339 22.5218 1.40962 23.4149 1.06237 23.4644C0.566152 23.5139 0.219088 23.9108 0.11974 24.407C0.0702574 24.7046 -0.82289 31.7986 3.14579 35.8167C5.82441 38.4953 9.94191 38.9421 12.4224 38.9421C12.8193 38.9421 13.1663 38.9421 13.5137 38.8926V46.0361C13.5137 46.6313 14.0099 47.1275 14.6051 47.1275C15.2002 47.1275 15.6965 46.6313 15.6965 46.0361L15.6968 38.8424C15.9944 38.8424 16.3418 38.8919 16.6889 38.8919C19.1692 38.8919 23.2866 38.4455 25.9654 35.7666C29.9839 31.7982 29.0414 24.6545 28.9915 24.3569L28.9913 24.3571ZM5.77508 10.9631C5.77508 6.10171 9.74376 2.13303 14.6052 2.13303C19.4666 2.13303 23.4353 6.10171 23.4353 10.9631C23.4353 15.8246 19.4666 19.7933 14.6052 19.7933C9.74376 19.7933 5.77508 15.8745 5.77508 10.9631ZM2.30265 25.4981C4.13804 25.3988 8.50357 25.4486 10.9839 27.9785C12.9186 29.9132 13.4148 32.9887 13.4643 35.122L8.6524 30.3101C8.20601 29.8637 7.51151 29.8637 7.11465 30.3101C6.71775 30.7565 6.66827 31.451 7.11465 31.8479L11.9266 36.6598C9.79363 36.6103 6.71771 36.1141 4.78302 34.1794C2.25287 31.699 2.20335 27.3833 2.30265 25.4981ZM24.4275 34.2292C22.4929 36.1639 19.4173 36.66 17.284 36.7096L22.0959 31.8976C22.5423 31.4513 22.5423 30.7568 22.0959 30.3599C21.6495 29.963 20.955 29.9135 20.5582 30.3599L15.7463 35.1718C15.7957 33.0389 16.292 29.963 18.2266 28.0283C20.707 25.5479 25.0725 25.4486 26.9079 25.5479C27.0072 27.3833 26.9577 31.699 24.4275 34.2292Z" fill="#302B4E"/>
</svg>
