<svg width="32" height="32" viewBox="0 0 32 32" fill="none" xmlns="http://www.w3.org/2000/svg">
<path fill-rule="evenodd" clip-rule="evenodd" d="M16 0C24.8371 0 32 7.16354 32 16C32 24.8371 24.8365 32 16 32C7.16294 32 0 24.8365 0 16C0 7.16294 7.16354 0 16 0ZM8.07914 16.209C7.48818 15.5558 7.53927 14.5475 8.19159 13.9574C8.84487 13.3665 9.85317 13.4176 10.4432 14.0699L14.4287 18.4737L23.0412 9.57753C23.6562 8.94527 24.6667 8.9313 25.2989 9.5465C25.9312 10.1615 25.9451 11.1719 25.3299 11.8042L15.5355 21.9212L15.5334 21.9191C15.5103 21.9431 15.4853 21.9672 15.4601 21.9893C14.8078 22.5803 13.7994 22.5301 13.2085 21.8769L8.07816 16.2088L8.07914 16.209Z" fill="#F1684C"/>
</svg>
