<svg width="37" height="37" viewBox="0 0 37 37" fill="none" xmlns="http://www.w3.org/2000/svg">
<path d="M18.5 0C13.5499 0 8.9 1.90009 5.4 5.4C1.89973 8.89991 0 13.5497 0 18.5C0 23.4503 1.90009 28.1 5.4 31.6C8.89991 35.1 13.5501 37 18.5 37C23.4501 37 28.1 35.0999 31.6 31.6C35.1 28.1001 37 23.4499 37 18.5C37 13.5499 35.0999 8.9 31.6 5.4C28.1001 1.89973 23.4503 0 18.5 0ZM30.15 30.15C27.0501 33.3001 22.9001 35 18.5 35C14.0999 35 9.94982 33.3001 6.85 30.15C3.75018 26.9999 2 22.9001 2 18.5C2 14.0999 3.69991 9.94982 6.85 6.85C10.0001 3.75018 14.0999 2 18.5 2C22.9001 2 27.0502 3.69991 30.15 6.85C33.2498 10.0001 35 14.0999 35 18.5C35 22.9001 33.3001 27.0502 30.15 30.15Z" fill="#302B4E"/>
<path d="M19.95 17.1499V13.5C20.9001 13.6998 21.6499 14.1501 22.2502 14.7999L22.7503 15.3499L24.7003 13.4498L24.1503 12.8998C23.0503 11.7998 21.6004 11.1496 19.9001 10.9V9.00024H17.3502V10.9003C14.5503 11.2505 12.6501 12.9504 12.6501 15.1505C12.6501 17.9504 15.2 18.8004 17.3502 19.3504V23.5503C15.8003 23.2504 14.8003 22.4503 14.3002 21.9502L13.7502 21.4001L11.8501 23.3501L12.3502 23.8503C13.5503 25.1003 15.3002 25.9503 17.3003 26.1505L17.3 28H19.8499V26.1501C23.4001 25.7002 24.6501 23.6002 24.6501 21.6503C24.7502 18.6501 21.9503 17.6502 19.95 17.1501L19.95 17.1499ZM19.95 23.5499V20.0001C21.35 20.45 21.9 20.9502 21.9 21.7502C21.9 22.1001 21.75 23.2001 19.95 23.5499ZM17.4001 13.4499V16.4501C16.1002 16.05 15.6001 15.65 15.6001 15.0501C15.6001 14.3497 16.3001 13.6996 17.4001 13.4499Z" fill="#302B4E"/>
</svg>
