<svg width="46" height="71" viewBox="0 0 46 81" fill="none" xmlns="http://www.w3.org/2000/svg">
<path d="M15.0387 6.47016C14.6116 6.55944 14.2177 6.84499 14.0456 7.38805C13.822 8.1451 14.1447 8.99116 14.8275 9.35548C27.7179 15.2869 39.0439 29.573 37.9566 43.2954C36.8165 57.7397 26.8823 68.9489 12.6071 71.9325L12.0941 72.0398C11.3245 72.2006 10.9303 72.9933 11.0654 73.7767C11.2005 74.56 11.9171 75.1205 12.6007 74.9777L13.1138 74.8704C28.5003 71.6545 39.2394 59.4656 40.5016 43.6757C41.6941 28.5101 29.8068 13.0226 15.7724 6.61943C15.5681 6.46017 15.2953 6.41654 15.0387 6.47016Z" fill="#F1CE3D"/>
<path d="M15.4159 64.3068C14.9843 64.3977 14.6028 64.7861 14.428 65.3359C13.7987 67.4184 12.7055 68.8809 11.4402 70.379C10.7115 71.3535 9.96596 72.2291 9.35775 73.3838C9.14923 73.7358 9.06116 74.2673 9.23183 74.7449C9.4024 75.222 9.7292 75.5643 10.1083 75.6893C11.5218 76.1101 12.8323 76.4501 14.1426 76.7895C15.4531 77.1295 16.7634 77.4689 18.0045 77.9259C18.6766 78.1949 19.4035 77.7337 19.6138 76.8684C19.8411 76.102 19.4299 75.2645 18.6716 75.0138C17.2581 74.593 15.9476 74.253 14.6373 73.9136C13.9821 73.7436 13.3268 73.5736 12.6717 73.4036C12.897 73.1505 13.1057 72.7992 13.4173 72.528C14.7523 70.9122 16.2267 69.062 16.9444 66.4473C17.1716 65.6809 16.8472 64.8251 16.0884 64.5745C15.8476 64.216 15.5889 64.2705 15.416 64.3069L15.4159 64.3068Z" fill="#F1CE3D"/>
</svg>
