<svg width="100" height="30" viewBox="0 0 100 24" fill="none" xmlns="http://www.w3.org/2000/svg">
<path d="M16.856 17.276C16.856 17.228 16.904 17.204 17 17.204C17.072 17.204 17.132 17.228 17.18 17.276C17.252 17.3 17.288 17.324 17.288 17.348C17.048 19.22 16.928 20.924 16.928 22.46C16.928 22.652 16.892 22.796 16.82 22.892C16.748 22.964 16.604 23 16.388 23H0.476C0.404 23 0.368 22.928 0.368 22.784C0.368 22.64 0.404 22.568 0.476 22.568C1.244 22.568 1.796 22.508 2.132 22.388C2.492 22.268 2.732 22.04 2.852 21.704C2.972 21.344 3.032 20.804 3.032 20.084V3.416C3.032 2.696 2.972 2.168 2.852 1.832C2.732 1.496 2.492 1.268 2.132 1.148C1.772 1.004 1.22 0.931999 0.476 0.931999C0.404 0.931999 0.368 0.859999 0.368 0.715999C0.368 0.572 0.404 0.5 0.476 0.5H15.74C15.98 0.5 16.1 0.607999 16.1 0.823998L16.172 5.612C16.172 5.66 16.1 5.696 15.956 5.72C15.836 5.744 15.764 5.72 15.74 5.648C15.356 4.256 14.708 3.224 13.796 2.552C12.884 1.88 11.684 1.544 10.196 1.544H9.116C8.396 1.544 7.868 1.7 7.532 2.012C7.196 2.324 7.028 2.804 7.028 3.452V10.796H10.016C11.408 10.796 12.476 10.556 13.22 10.076C13.964 9.596 14.336 8.924 14.336 8.06C14.336 7.988 14.396 7.952 14.516 7.952C14.66 7.952 14.732 7.988 14.732 8.06L14.696 11.3L14.732 13.028C14.78 13.844 14.804 14.492 14.804 14.972C14.804 15.02 14.732 15.044 14.588 15.044C14.444 15.044 14.372 15.02 14.372 14.972C14.372 13.988 13.988 13.22 13.22 12.668C12.476 12.092 11.396 11.804 9.98 11.804H7.028V19.94C7.028 20.636 7.16 21.152 7.424 21.488C7.688 21.824 8.108 21.992 8.684 21.992H9.872C11.744 21.992 13.244 21.608 14.372 20.84C15.5 20.072 16.328 18.884 16.856 17.276ZM38.4373 22.568C38.5093 22.568 38.5453 22.64 38.5453 22.784C38.5453 22.928 38.5093 23 38.4373 23C37.8133 23 37.3213 22.988 36.9613 22.964L34.8013 22.928L32.7133 22.964C32.3293 22.988 31.8253 23 31.2013 23C31.1293 23 31.0933 22.928 31.0933 22.784C31.0933 22.64 31.1293 22.568 31.2013 22.568C31.9453 22.568 32.4493 22.4 32.7133 22.064C32.9773 21.704 33.1093 21.044 33.1093 20.084V14.9C33.1093 13.604 32.8693 12.644 32.3893 12.02C31.9333 11.396 31.2013 11.084 30.1933 11.084C29.6173 11.084 29.0173 11.204 28.3933 11.444C27.7933 11.684 27.2653 12.008 26.8093 12.416V20.084C26.8093 21.044 26.9413 21.704 27.2053 22.064C27.4933 22.4 28.0093 22.568 28.7533 22.568C28.8253 22.568 28.8613 22.64 28.8613 22.784C28.8613 22.928 28.8253 23 28.7533 23C28.1293 23 27.6373 22.988 27.2773 22.964L25.1173 22.928L22.9933 22.964C22.6333 22.988 22.1413 23 21.5173 23C21.4453 23 21.4093 22.928 21.4093 22.784C21.4093 22.64 21.4453 22.568 21.5173 22.568C22.2613 22.568 22.7653 22.4 23.0293 22.064C23.2933 21.704 23.4253 21.044 23.4253 20.084V13.316C23.4253 12.572 23.3293 12.032 23.1373 11.696C22.9693 11.336 22.6933 11.156 22.3093 11.156C21.9013 11.156 21.3253 11.324 20.5813 11.66H20.5093C20.4373 11.66 20.3773 11.6 20.3293 11.48C20.3053 11.36 20.3173 11.288 20.3653 11.264L25.3693 8.816C25.5133 8.768 25.5973 8.744 25.6213 8.744C25.8853 8.744 26.1373 9.008 26.3773 9.536C26.6173 10.04 26.7613 10.736 26.8093 11.624C28.4653 9.656 30.2893 8.672 32.2813 8.672C33.5773 8.672 34.5973 9.092 35.3413 9.932C36.1093 10.748 36.4933 11.828 36.4933 13.172V20.084C36.4933 21.044 36.6253 21.704 36.8893 22.064C37.1773 22.4 37.6933 22.568 38.4373 22.568Z" fill="#E54F3A"/>
<path d="M56.6565 9.104C56.7045 9.104 56.7285 9.176 56.7285 9.32C56.7285 9.464 56.7045 9.536 56.6565 9.536C55.9605 9.536 55.3365 9.8 54.7845 10.328C54.2565 10.856 53.7525 11.672 53.2725 12.776L48.8445 23C48.8205 23.12 48.6885 23.18 48.4485 23.18C48.2565 23.18 48.1245 23.12 48.0525 23L42.5445 12.092C42.0405 11.036 41.5965 10.352 41.2125 10.04C40.8285 9.704 40.3605 9.536 39.8085 9.536C39.7365 9.536 39.7005 9.464 39.7005 9.32C39.7005 9.176 39.7365 9.104 39.8085 9.104C40.2405 9.104 40.6005 9.116 40.8885 9.14L43.3005 9.176L46.0725 9.14C46.4805 9.116 47.0445 9.104 47.7645 9.104C47.8365 9.104 47.8725 9.176 47.8725 9.32C47.8725 9.464 47.8365 9.536 47.7645 9.536C46.3725 9.536 45.6765 9.812 45.6765 10.364C45.6765 10.508 45.7365 10.7 45.8565 10.94L49.8885 18.5L52.2645 12.74C52.4565 12.236 52.5525 11.804 52.5525 11.444C52.5525 10.844 52.3485 10.376 51.9405 10.04C51.5325 9.704 50.9685 9.536 50.2485 9.536C50.2005 9.536 50.1765 9.464 50.1765 9.32C50.1765 9.176 50.2005 9.104 50.2485 9.104C50.8965 9.104 51.3885 9.116 51.7245 9.14L53.8845 9.176L55.3245 9.14C55.6125 9.116 56.0565 9.104 56.6565 9.104ZM71.386 20.624C71.434 20.624 71.482 20.672 71.53 20.768C71.602 20.864 71.614 20.936 71.566 20.984C70.678 21.848 69.778 22.472 68.866 22.856C67.954 23.24 66.958 23.432 65.878 23.432C64.366 23.432 63.058 23.12 61.954 22.496C60.85 21.848 60.01 20.996 59.434 19.94C58.858 18.86 58.57 17.708 58.57 16.484C58.57 15.092 58.93 13.808 59.65 12.632C60.37 11.432 61.354 10.496 62.602 9.824C63.85 9.128 65.242 8.78 66.778 8.78C68.266 8.78 69.406 9.104 70.198 9.752C70.99 10.376 71.386 11.24 71.386 12.344C71.386 13.04 71.254 13.388 70.99 13.388H68.794L62.314 13.46C62.242 13.916 62.206 14.42 62.206 14.972C62.206 17.036 62.686 18.668 63.646 19.868C64.63 21.068 65.974 21.668 67.678 21.668C68.278 21.668 68.902 21.584 69.55 21.416C70.198 21.248 70.786 20.996 71.314 20.66L71.386 20.624ZM65.446 9.5C64.726 9.5 64.102 9.788 63.574 10.364C63.046 10.94 62.662 11.732 62.422 12.74L67.534 12.632C67.462 10.544 66.766 9.5 65.446 9.5ZM77.9628 10.832C77.9628 11.528 78.2028 12.128 78.6828 12.632C79.1868 13.136 79.9068 13.664 80.8428 14.216C81.7548 14.744 82.4268 15.164 82.8588 15.476C83.3148 15.764 83.7228 16.184 84.0828 16.736C84.4428 17.264 84.6228 17.912 84.6228 18.68C84.6228 19.496 84.4188 20.264 84.0108 20.984C83.6028 21.704 82.9908 22.292 82.1748 22.748C81.3588 23.18 80.3868 23.396 79.2588 23.396C77.9388 23.396 76.6908 23.072 75.5148 22.424C75.3708 22.28 75.2988 22.136 75.2988 21.992L75.2268 18.428C75.2268 18.356 75.2868 18.32 75.4068 18.32C75.5508 18.296 75.6348 18.308 75.6588 18.356C76.0428 19.556 76.6788 20.576 77.5668 21.416C78.4548 22.256 79.3548 22.676 80.2668 22.676C80.7708 22.676 81.1668 22.52 81.4548 22.208C81.7668 21.896 81.9228 21.44 81.9228 20.84C81.9228 19.952 81.6708 19.256 81.1668 18.752C80.6628 18.224 79.9188 17.684 78.9348 17.132C78.0948 16.676 77.4588 16.304 77.0268 16.016C76.5948 15.728 76.2108 15.32 75.8748 14.792C75.5388 14.264 75.3708 13.616 75.3708 12.848C75.3708 11.432 75.8748 10.4 76.8828 9.752C77.8908 9.08 79.1268 8.744 80.5908 8.744C81.1428 8.744 81.6348 8.78 82.0668 8.852C82.5228 8.924 83.0268 9.068 83.5788 9.284C83.7948 9.356 83.9028 9.488 83.9028 9.68C83.9028 10.28 83.8908 10.748 83.8668 11.084L83.8308 12.884C83.8308 12.956 83.7588 12.992 83.6148 12.992C83.4708 12.992 83.3988 12.956 83.3988 12.884C83.3988 12.428 83.2068 11.936 82.8228 11.408C82.4388 10.856 81.9348 10.388 81.3108 10.004C80.7108 9.62 80.0868 9.428 79.4388 9.428C78.4548 9.428 77.9628 9.896 77.9628 10.832ZM98.7578 20.48C98.8538 20.48 98.9258 20.528 98.9738 20.624C99.0458 20.72 99.0458 20.792 98.9738 20.84C98.0858 21.728 97.2218 22.388 96.3818 22.82C95.5418 23.228 94.6538 23.432 93.7178 23.432C92.6618 23.432 91.7618 23.18 91.0178 22.676C90.2738 22.172 89.9018 21.32 89.9018 20.12V12.128C89.9018 11.384 89.7698 10.868 89.5058 10.58C89.2418 10.292 88.7618 10.148 88.0658 10.148C88.0418 10.148 88.0058 10.112 87.9578 10.04C87.9338 9.968 87.9218 9.896 87.9218 9.824C87.9218 9.728 87.9338 9.656 87.9578 9.608C87.9818 9.536 88.0178 9.5 88.0658 9.5C89.2898 9.452 90.2738 9.188 91.0178 8.708C91.7858 8.228 92.3738 7.496 92.7818 6.512C92.8298 6.416 92.9258 6.368 93.0698 6.368C93.2378 6.368 93.3218 6.416 93.3218 6.512V9.392C94.7138 9.368 96.2738 9.26 98.0018 9.068C98.0498 9.068 98.0978 9.164 98.1458 9.356C98.2178 9.524 98.2538 9.716 98.2538 9.932C98.2538 10.172 98.2058 10.412 98.1098 10.652C98.0378 10.868 97.9538 10.964 97.8578 10.94C96.2978 10.604 94.7858 10.424 93.3218 10.4V18.932C93.3218 19.844 93.5498 20.516 94.0058 20.948C94.4858 21.38 95.1098 21.596 95.8778 21.596C96.8378 21.596 97.7738 21.236 98.6858 20.516L98.7578 20.48Z" fill="#070707"/>
</svg>
