<svg width="47" height="33" viewBox="0 0 47 33" fill="none" xmlns="http://www.w3.org/2000/svg">
<path d="M6.99639 25.4924C6.99639 26.3779 6.27859 27.0957 5.39308 27.0957C4.50752 27.0957 3.78976 26.3779 3.78976 25.4924C3.78976 24.6068 4.50756 23.889 5.39308 23.889C6.27863 23.889 6.99639 24.6068 6.99639 25.4924Z" fill="#302B4E"/>
<path d="M42.9495 12.1801H26.139C26.4792 11.1597 26.8676 9.70236 27.0133 8.19595C27.1106 7.17549 27.0618 6.05812 26.8676 4.84349C26.5762 3.09442 25.2158 1.68562 23.4179 1.39376C22.0091 1.15077 20.6972 2.07394 20.3569 3.48275L19.6768 6.68947C19.3365 8.34128 18.4621 9.89618 17.199 11.062L13.4093 14.6574C13.0206 14.9976 12.535 15.1918 12.049 15.1918H10.5429C10.2026 13.9772 9.13411 13.1028 7.82222 13.1028L2.81794 13.1032C1.26304 13.1032 0 14.3663 0 15.9211V27.8731C0 29.428 1.26313 30.691 2.81794 30.691H7.87063C9.18252 30.691 10.2999 29.7678 10.5913 28.5532H12.9233L13.2148 28.9904C14.5752 31.1766 16.9072 32.4885 19.4821 32.4885H20.1138C22.6888 32.4885 26.187 32.2943 29.345 31.6141C29.6365 31.7114 29.9767 31.8083 30.3166 31.8083H33.7663C35.5154 31.8083 36.9731 30.3507 36.9731 28.6016C36.9731 27.873 36.7301 27.2412 36.3413 26.7068C37.07 26.1239 37.6045 25.2007 37.6045 24.1803C37.6045 23.5001 37.3615 22.8684 37.0216 22.334C37.799 21.751 38.3334 20.8279 38.3334 19.7589C38.3334 19.3217 38.2362 18.933 38.0905 18.5443H42.9005C44.6495 18.5443 46.1072 17.0867 46.1072 15.3376C46.156 13.6373 44.6984 12.1797 42.9493 12.1797L42.9495 12.1801ZM8.74547 27.9217C8.74547 28.3589 8.35675 28.7476 7.91957 28.7476H2.81803C2.38084 28.7476 1.99212 28.3589 1.99212 27.9217V15.9698C1.99212 15.5326 2.38085 15.1439 2.81803 15.1439H7.87072C8.30791 15.1439 8.69662 15.5326 8.69662 15.9698V27.9217H8.74547ZM33.8154 29.8166H30.3657C29.6855 29.8166 29.1511 29.2821 29.1511 28.6019C29.1511 27.9217 29.6855 27.3873 30.3657 27.3873H33.8154C34.4956 27.3873 35.0301 27.9217 35.0301 28.6019C34.9813 29.2821 34.4468 29.8166 33.8154 29.8166ZM34.4468 25.4441H29.7341C29.0539 25.4441 28.5194 24.9096 28.5194 24.2294C28.5194 23.5493 29.0539 23.0148 29.7341 23.0148H34.4468C35.127 23.0148 35.6614 23.5493 35.6614 24.2294C35.613 24.8608 35.0785 25.4441 34.4468 25.4441ZM35.127 21.0227H29.0053C28.3252 21.0227 27.7907 20.4883 27.7907 19.8081C27.7907 19.1279 28.3252 18.5935 29.0053 18.5935H35.127C35.8072 18.5935 36.3416 19.1279 36.3416 19.8081C36.3416 20.4883 35.8072 21.0227 35.127 21.0227ZM42.9492 16.6014H29.0053C27.8879 16.6014 26.9163 17.1843 26.333 18.0102C23.9037 21.7026 20.2113 20.7797 20.0657 20.7797C19.5312 20.634 18.9968 20.9254 18.851 21.5083C18.7053 22.0428 19.0452 22.5772 19.5797 22.723C20.0169 22.8202 20.6001 22.9172 21.2803 22.9172C22.738 22.9172 24.5355 22.5284 26.1873 21.2165C26.4303 21.7025 26.7703 22.0909 27.159 22.3826C26.7702 22.9171 26.576 23.5488 26.576 24.229C26.576 25.2494 27.062 26.1722 27.8392 26.7555C27.4505 27.2899 27.2075 27.9216 27.2075 28.6503C27.2075 29.1363 27.3047 29.6219 27.5477 30.0107C24.6813 30.4967 21.7176 30.5936 19.5798 30.5936C17.7334 30.5936 15.9844 29.622 15.0127 28.0186L14.4297 27.0954C14.2355 26.8039 13.9437 26.6094 13.5554 26.6094H10.7858V17.2333H12.1946C13.2151 17.2333 14.1867 16.8446 14.9642 16.1159L18.7538 12.5206C20.3087 11.0629 21.3288 9.16808 21.766 7.12759L22.4462 3.92088C22.5435 3.58062 22.8349 3.33796 23.1748 3.38642C24.0492 3.53215 24.7781 4.26079 24.9239 5.18399C25.1181 6.20446 25.1669 7.17607 25.0696 8.00194C24.8266 10.4312 23.855 12.7632 23.855 12.812C23.7093 13.1034 23.7577 13.4921 23.9523 13.7352C24.1465 14.0266 24.4383 14.1724 24.7782 14.1724H42.9976C43.6778 14.1724 44.2123 14.7068 44.2123 15.387C44.1638 16.0672 43.5809 16.6016 42.9491 16.6016L42.9492 16.6014Z" fill="#302B4E"/>
<path d="M35.4673 5.37817C35.6131 5.47543 35.8076 5.5239 35.9533 5.5239C36.2936 5.5239 36.6335 5.3297 36.8277 5.0379L38.2853 2.51139C38.5768 2.02539 38.3826 1.39401 37.8966 1.151C37.4106 0.85954 36.7792 1.05373 36.5362 1.53972L35.0786 4.06624C34.8356 4.45497 34.9813 5.08671 35.4673 5.37813L35.4673 5.37817Z" fill="#302B4E"/>
<path d="M30.0744 4.11489C30.1716 4.55208 30.6088 4.84353 31.046 4.84353C31.1433 4.84353 31.2402 4.84353 31.289 4.79506C31.8234 4.64933 32.1633 4.11489 32.0176 3.58043L31.2402 0.76249C31.0945 0.228035 30.5115 -0.11187 30.0256 0.0338507C29.4911 0.17958 29.1512 0.714026 29.2969 1.24848L30.0744 4.11489Z" fill="#302B4E"/>
<path d="M38.0424 8.68193C38.1396 9.11912 38.5768 9.41057 39.014 9.41057C39.1112 9.41057 39.2082 9.41057 39.257 9.36211L42.0749 8.58466C42.6094 8.43893 42.9493 7.90449 42.8035 7.37003C42.6578 6.83558 42.1234 6.49567 41.5889 6.64139L38.771 7.41884C38.2365 7.61337 37.8966 8.14781 38.0423 8.68197L38.0424 8.68193Z" fill="#302B4E"/>
</svg>
